<svg width="80" height="56" fill="none" xmlns="http://www.w3.org/2000/svg"><path d="M32 40l20.76-12L32 16v24zM78.24 8.68c.52 1.88.88 4.4 1.12 7.6.28 3.2.4 5.96.4 8.36L80 28c0 8.76-.64 15.2-1.76 19.32-1 3.6-3.32 5.92-6.92 6.92-1.88.52-5.32.88-10.6 1.12-5.2.28-9.96.4-14.36.4L40 56c-16.76 0-27.2-.64-31.32-1.76-3.6-1-5.92-3.32-6.92-6.92-.52-1.88-.88-4.4-1.12-7.6-.28-3.2-.4-5.96-.4-8.36L0 28c0-8.76.64-15.2 1.76-19.32 1-3.6 3.32-5.92 6.92-6.92C10.56 1.24 14 .88 19.28.64c5.2-.28 9.96-.4 14.36-.4L40 0c16.76 0 27.2.64 31.32 1.76 3.6 1 5.92 3.32 6.92 6.92z" fill="#FA4141"/></svg>